<?xml version="1.0" encoding="UTF-8"?>
<svg width="64pt" height="64pt" version="1.1" viewBox="0 0 22.5778 22.5778" xmlns="http://www.w3.org/2000/svg" xmlns:cc="http://creativecommons.org/ns#" xmlns:dc="http://purl.org/dc/elements/1.1/" xmlns:rdf="http://www.w3.org/1999/02/22-rdf-syntax-ns#">
 <metadata>
  <rdf:RDF>
   <cc:Work rdf:about="">
    <dc:format>image/svg+xml</dc:format>
    <dc:type rdf:resource="http://purl.org/dc/dcmitype/StillImage"/>
    <dc:title/>
   </cc:Work>
  </rdf:RDF>
 </metadata>
 <path d="m2.05253 6.06137h3.9447v-3.9447h10.5192v6.5745h3.9447v7.8894h-3.9447v3.9447h-10.5192v-6.5745h-3.9447z" fill="none" stroke="#fdffff" stroke-width=".705556"/>
 <path d="m9.15235 10.6797q-0.293357 0-0.441488 0.207405-0.145226 0.204265-0.145226 0.615937t0.145226 0.619077q0.148131 0.204263 0.441488 0.204263 0.296262 0 0.441488-0.204263 0.148131-0.207405 0.148131-0.619077t-0.148131-0.615937q-0.145226-0.207405-0.441488-0.207405zm1.38255-2.25319v0.867337q-0.275929-0.141414-0.51991-0.207407-0.24398-0.0691356-0.476342-0.0691356-0.499579 0-0.778414 0.301682-0.278835 0.298539-0.325307 0.889335 0.191699-0.153984 0.415348-0.229404 0.223649-0.078564 0.487961-0.078564 0.665137 0 1.07177 0.421098 0.409539 0.421098 0.409539 1.10303 0 0.754203-0.456011 1.20987-0.456012 0.452522-1.22281 0.452522-0.845218 0-1.30994-0.615934-0.46182-0.619078-0.46182-1.75353 0-1.16273 0.540242-1.82581 0.543147-0.666215 1.48712-0.666215 0.299167 0 0.580906 0.05028 0.281739 0.05028 0.557668 0.150842z" fill="#fff"/>
 <path d="m11.7316 12.892v-0.867339q0.267216 0.13513 0.511196 0.204265 0.243982 0.06599 0.482151 0.06599 0.49958 0 0.778415-0.298542 0.278835-0.301681 0.328211-0.892475-0.197506 0.157125-0.421155 0.235688-0.223651 0.07857-0.485057 0.07857-0.665138 0-1.07468-0.417957-0.406633-0.421096-0.406633-1.10617 0-0.757349 0.453106-1.21301 0.456012-0.455666 1.2199-0.455666 0.848122 0 1.31285 0.619077 0.464725 0.619077 0.464725 1.75038 0 1.16274-0.543148 1.82895-0.543147 0.663073-1.49002 0.663073-0.304975 0-0.583809-0.05027-0.278835-0.04713-0.546051-0.144555zm1.37965-2.25948q0.293356 0 0.441488-0.204263 0.148132-0.207407 0.148132-0.619078 0-0.408528-0.148132-0.615934-0.148132-0.207407-0.441488-0.207407-0.293358 0-0.441488 0.207407-0.148132 0.207407-0.148132 0.615934 0 0.411671 0.148132 0.619078 0.14813 0.204263 0.441488 0.204263z" fill="#fff"/>
</svg>
