<?xml version="1.0" encoding="UTF-8" standalone="no"?>
<svg
   width="64pt"
   height="64pt"
   version="1.1"
   viewBox="0 0 22.578 22.578"
   id="svg8"
   sodipodi:docname="icon-terr-remove-all-owner.svg"
   inkscape:version="1.1.1 (3bf5ae0d25, 2021-09-20)"
   xmlns:inkscape="http://www.inkscape.org/namespaces/inkscape"
   xmlns:sodipodi="http://sodipodi.sourceforge.net/DTD/sodipodi-0.dtd"
   xmlns="http://www.w3.org/2000/svg"
   xmlns:svg="http://www.w3.org/2000/svg"
   xmlns:rdf="http://www.w3.org/1999/02/22-rdf-syntax-ns#"
   xmlns:cc="http://creativecommons.org/ns#"
   xmlns:dc="http://purl.org/dc/elements/1.1/">
  <defs
     id="defs12">
    <rect
       x="-17.868456"
       y="16.723043"
       width="113.7396"
       height="73.879195"
       id="rect4285" />
    <inkscape:path-effect
       effect="fill_between_many"
       method="originald"
       linkedpaths="#path21161-9,0,1"
       id="path-effect26602" />
  </defs>
  <sodipodi:namedview
     id="namedview10"
     pagecolor="#ffffff"
     bordercolor="#999999"
     borderopacity="1"
     inkscape:pageshadow="0"
     inkscape:pageopacity="0"
     inkscape:pagecheckerboard="0"
     inkscape:document-units="pt"
     showgrid="false"
     inkscape:zoom="4.3652344"
     inkscape:cx="69.755705"
     inkscape:cy="57.614318"
     inkscape:window-width="1920"
     inkscape:window-height="1051"
     inkscape:window-x="-9"
     inkscape:window-y="-9"
     inkscape:window-maximized="1"
     inkscape:current-layer="svg8" />
  <metadata
     id="metadata2">
    <rdf:RDF>
      <cc:Work
         rdf:about="">
        <dc:format>image/svg+xml</dc:format>
        <dc:type
           rdf:resource="http://purl.org/dc/dcmitype/StillImage" />
      </cc:Work>
    </rdf:RDF>
  </metadata>
  <path
     id="path4"
     style="color:#000000;fill:#d4d4d4;stroke-width:3.77949;-inkscape-stroke:none;fill-opacity:1"
     d="M 68.230469 11.449219 L 27.984375 51.695312 L 33.335938 51.695312 L 34.925781 56.0625 L 73.884766 17.103516 L 68.230469 11.449219 z M 27.169922 52.509766 L 11.449219 68.230469 L 17.103516 73.884766 L 20.705078 70.283203 L 27.169922 52.509766 z M 30.316406 58.589844 L 29.154297 61.833984 L 30.863281 60.125 L 30.316406 58.589844 z "
     transform="scale(0.26458593)" />
  <path
     id="path6"
     style="color:#000000;fill:#d4d4d4;stroke-width:3.77949;-inkscape-stroke:none;fill-opacity:1"
     d="M 17.103516 11.449219 L 11.449219 17.103516 L 46.041016 51.695312 L 49.990234 51.695312 L 49.990234 55.644531 L 63.933594 69.587891 L 63.933594 58.273438 L 17.103516 11.449219 z M 69.285156 63.623047 L 69.285156 72.828125 L 73.884766 68.222656 L 69.285156 63.623047 z "
     transform="scale(0.26458593)" />
  <path
     d="m 11.063092,20.611724 h -0.945 L 9.4642059,18.753075 H 6.579941 L 5.9260549,20.611724 H 5.0258418 L 7.4532821,13.942981 H 8.6356516 Z M 9.1910069,17.991701 8.0220735,14.717792 6.8486613,17.991701 Z"
     style="font-size:34.6667px;line-height:1.25;white-space:pre;fill:#ffffff;fill-opacity:1;stroke:none;stroke-width:0.26458593;stroke-opacity:1;stroke-miterlimit:4;stroke-dasharray:none"
     id="path21161" />
  <path
     d="m 16.294181,20.611724 h -4.218909 v -6.668743 h 0.886777 v 5.880497 h 3.332132 z"
     style="font-size:34.6667px;line-height:1.25;white-space:pre;fill:#ffffff;fill-opacity:1;stroke:none;stroke-width:0.26458593;stroke-opacity:1;stroke-miterlimit:4;stroke-dasharray:none"
     id="path21163" />
  <path
     d="m 21.399867,20.611724 h -4.218909 v -6.668743 h 0.886777 v 5.880497 h 3.332132 z"
     style="font-size:34.6667px;line-height:1.25;white-space:pre;fill:#ffffff;fill-opacity:1;stroke:none;stroke-width:0.26458593;stroke-opacity:1;stroke-miterlimit:4;stroke-dasharray:none"
     id="path21165" />
</svg>
