<?xml version="1.0" encoding="UTF-8"?>
<!-- Created with Inkscape (http://www.inkscape.org/) -->
<svg width="64pt" height="64pt" version="1.1" viewBox="0 0 22.578 22.578" xmlns="http://www.w3.org/2000/svg" xmlns:cc="http://creativecommons.org/ns#" xmlns:dc="http://purl.org/dc/elements/1.1/" xmlns:rdf="http://www.w3.org/1999/02/22-rdf-syntax-ns#">
 <metadata>
  <rdf:RDF>
   <cc:Work rdf:about="">
    <dc:format>image/svg+xml</dc:format>
    <dc:type rdf:resource="http://purl.org/dc/dcmitype/StillImage"/>
    <dc:title/>
   </cc:Work>
  </rdf:RDF>
 </metadata>
 <g fill="none" stroke="#fff">
  <path d="m10.319325 10.00249-2.4693998-1.0583002-1.7639-3.175s-1.1027 2.3522-1.8083 3.2929c-0.7056 0.9407002-2.0715578 1.9858702-2.0715578 1.9858702l3.334096 1.912286-3.0077534 1.719903 9.896291 6.112773 7.397519-4.820688-2.717601-1.751507 3.556995-2.632095s-2.004589-1.358242-2.827789-2.3578422c-0.8232-0.9996-2.5797-4.52-2.5797-4.52l-1.7639 1.7639m2.1167 2.8222-1.4111-1.4111-2.8222-5.9972-4.2332998 5.6444" stroke-linecap="round" stroke-width="1.2347"/>
  <path d="m9.6141252 4.7124898 0.7055598 1.4111 0.70556-1.0583 0.70556 0.70555 0.70556-1.0583" stroke-width=".35278001"/>
  <g>
   <path d="m4.3224252 13.53249s1.5034753-0.434072 2.1190693-0.890174c0.4931212-0.36536 1.1416717-1.033505 1.1416717-1.033505" stroke-width=".52917188"/>
   <path d="m9.5542973 19.051566 9.8753327-6.732097" stroke-width=".52917186"/>
   <g stroke-width=".52917188">
    <path d="m7.7037392 17.22984s2.8709888-1.697311 4.1740888-2.705011c1.2865-0.99477 6.117784-4.5484802 6.117784-4.5484802"/>
    <path d="m5.1180744 15.763233s2.348488-1.30909 3.4655046-2.086169 2.679874-2.76158 2.679874-2.76158"/>
    <path d="m18.74147 13.271512s-1.4111-1.0583-1.8035-1.3605c-1.6242-1.251-2.4299-2.1672004-2.4299-2.1672004"/>
    <path d="m17.022325 14.58249s-1.727049-1.175765-2.5531-1.8142c-0.737536-0.570023-1.950736-1.762783-1.950736-1.762783"/>
   </g>
   <path d="m15.154004 19.047392-11.718838-7.29713" stroke-width=".52917186"/>
   <path d="m17.529228 17.827501s-5.377653-3.273202-6.680853-4.280902c-1.3457523-0.876264-2.2604589-1.85943-2.2604589-1.85943" stroke-width=".52917188"/>
  </g>
 </g>
</svg>
