<?xml version="1.0" encoding="UTF-8"?>
<svg width="64pt" height="64pt" version="1.1" viewBox="0 0 22.5778 22.5778" xmlns="http://www.w3.org/2000/svg" xmlns:cc="http://creativecommons.org/ns#" xmlns:dc="http://purl.org/dc/elements/1.1/" xmlns:rdf="http://www.w3.org/1999/02/22-rdf-syntax-ns#">
 <metadata>
  <rdf:RDF>
   <cc:Work rdf:about="">
    <dc:format>image/svg+xml</dc:format>
    <dc:type rdf:resource="http://purl.org/dc/dcmitype/StillImage"/>
    <dc:title/>
   </cc:Work>
  </rdf:RDF>
 </metadata>
 <path d="m2.05253 6.06137h3.9447v-3.9447h10.5192v6.5745h3.9447v7.8894h-3.9447v3.9447h-10.5192v-6.5745h-3.9447z" fill="none" stroke="#fff" stroke-width=".705556"/>
 <g fill="#fff" stroke-width=".264584" aria-label="id">
  <path d="m8.25532 9.53455h1.23418v3.86111h-1.23418zm0-1.50308h1.23418v1.00665h-1.23418z"/>
  <path d="m13.3092 10.0999v-2.06845h1.24107v5.36419h-1.24107v-0.558482q-0.255109 0.341295-0.56193 0.499876-0.306821 0.158582-0.710169 0.158582-0.713617 0-1.17212-0.565378-0.458507-0.568825-0.458507-1.46171 0-0.892883 0.458507-1.45826 0.458507-0.568825 1.17212-0.568825 0.399901 0 0.706722 0.162029 0.310268 0.158581 0.565377 0.496429zm-0.813592 2.49938q0.396454 0 0.603299-0.289584 0.210293-0.289584 0.210293-0.841171 0-0.551588-0.210293-0.841172-0.206845-0.289583-0.603299-0.289583-0.393006 0-0.603299 0.289583-0.206845 0.289584-0.206845 0.841172 0 0.551587 0.206845 0.841171 0.210293 0.289584 0.603299 0.289584z"/>
 </g>
</svg>
